<svg xmlns="http://www.w3.org/2000/svg" xmlns:xlink="http://www.w3.org/1999/xlink" width="55.586" height="55.586" viewBox="0 0 55.586 55.586">
  <defs>
    <linearGradient id="linear-gradient" x1="0.214" y1="0.141" x2="0.737" y2="0.8" gradientUnits="objectBoundingBox">
      <stop offset="0" stop-color="#f44336"/>
      <stop offset="1" stop-color="#a00202"/>
    </linearGradient>
  </defs>
  <g id="Group_1380" data-name="Group 1380" transform="translate(-24.207 -17.843)">
    <rect id="Rectangle_990" data-name="Rectangle 990" width="55.586" height="55.586" rx="6" transform="translate(24.207 17.843)" fill="url(#linear-gradient)"/>
    <g id="Group_1383" data-name="Group 1383" transform="translate(36.193 26.743)">
      <g id="Group_1051" data-name="Group 1051" transform="translate(0 17.557)">
        <path id="Path_1018" data-name="Path 1018" d="M275.341,486.575a.958.958,0,0,1-.639-.243,16.536,16.536,0,0,1-3.747-20.132.961.961,0,0,1,1.709.88A14.6,14.6,0,0,0,275.98,484.9a.961.961,0,0,1-.639,1.679Z" transform="translate(-269.058 -465.679)" fill="#fff"/>
        <path id="Path_1019" data-name="Path 1019" d="M333.565,513.665a.958.958,0,0,1-.68-.282,13,13,0,0,1-2.711-14.512.961.961,0,1,1,1.759.775,11.048,11.048,0,0,0,2.313,12.379.961.961,0,0,1-.68,1.64Z" transform="translate(-324.93 -496.058)" fill="#fff"/>
        <path id="Path_1020" data-name="Path 1020" d="M391.743,541.375a.959.959,0,0,1-.753-.363,9.452,9.452,0,0,1-1.632-8.678.961.961,0,1,1,1.836.568,7.531,7.531,0,0,0,1.3,6.914.961.961,0,0,1-.752,1.559Z" transform="translate(-380.706 -527.127)" fill="#fff"/>
      </g>
      <g id="Group_1052" data-name="Group 1052" transform="translate(10.776)">
        <path id="Path_1021" data-name="Path 1021" d="M446,245.373h-5.012a7.792,7.792,0,0,1-6.41-2.905,7.9,7.9,0,0,1-1.464-2.933.961.961,0,0,1,.7-1.135,6.593,6.593,0,0,0,2.476-1.409,5.437,5.437,0,0,0,1.665-4.8h-5.485a.961.961,0,0,1-.961-.961v-4.806h-2.563a2.922,2.922,0,0,1-2.655-4.144l5.3-11.767a.961.961,0,1,1,1.753.79l-5.3,11.771,0,.009a1,1,0,0,0,.908,1.419h3.524a.961.961,0,0,1,.961.961v4.806h5.355a.961.961,0,0,1,.945.784c.721,3.844-.8,6.154-2.208,7.415a8.555,8.555,0,0,1-2.264,1.444,5.838,5.838,0,0,0,5.724,3.539H446a.961.961,0,1,1,0,1.922Z" transform="translate(-426.025 -209.947)" fill="#fff"/>
        <circle id="Ellipse_42" data-name="Ellipse 42" cx="2.197" cy="2.197" r="2.197" transform="translate(12.215 3.364)" fill="#fff"/>
      </g>
    </g>
  </g>
</svg>
