<svg xmlns="http://www.w3.org/2000/svg" xmlns:xlink="http://www.w3.org/1999/xlink" width="55.586" height="55.586" viewBox="0 0 55.586 55.586">
  <defs>
    <linearGradient id="linear-gradient" x1="0.214" y1="0.141" x2="0.737" y2="0.8" gradientUnits="objectBoundingBox">
      <stop offset="0" stop-color="#f44336"/>
      <stop offset="1" stop-color="#a00202"/>
    </linearGradient>
  </defs>
  <g id="icon_people-counting" transform="translate(-24.207 -17.843)">
    <rect id="Rectangle_990" data-name="Rectangle 990" width="55.586" height="55.586" rx="6" transform="translate(24.207 17.843)" fill="url(#linear-gradient)"/>
    <path id="Path_1706" data-name="Path 1706" d="M698.547,128.709a11.87,11.87,0,0,1-14.728,18.43l-.881.881a13.192,13.192,0,0,1-3.7-3.7l.881-.881a11.87,11.87,0,0,1,18.431-14.728Zm-16.37,20.072a14.277,14.277,0,0,1-3.7-3.7l-4.788,4.788c-1.8,1.8,1.907,5.5,3.7,3.7l4.788-4.788Zm13.551-17.253a7.882,7.882,0,1,0,0,11.147,7.882,7.882,0,0,0,0-11.147Zm-7.345,6.646a.937.937,0,0,1-.717.841l-2.992.985a1.36,1.36,0,0,0-.48.268,6.752,6.752,0,0,0,11.92,0,1.359,1.359,0,0,0-.48-.269l-3.1-1.017a.938.938,0,0,1-.611-.809,3.49,3.49,0,0,0,.71-1.672l.2-.118a4.964,4.964,0,0,0,.322-2l-.149-.115a4.55,4.55,0,0,0-.238-2.017,3.167,3.167,0,0,0-5.237,0,4.54,4.54,0,0,0-.238,2.017l-.149.115a4.945,4.945,0,0,0,.322,2l.2.118a3.49,3.49,0,0,0,.71,1.672Zm-15.061-5.643a.825.825,0,0,1-.63.741l-2.634.867a1.38,1.38,0,0,0-.878.956l-.383,2.461h8.559a12.884,12.884,0,0,1,.5-4.024l-.877-.288a.826.826,0,0,1-.537-.713,3.079,3.079,0,0,0,.625-1.472l.177-.1a4.359,4.359,0,0,0,.284-1.762l-.131-.1a3.99,3.99,0,0,0-.21-1.775,2.788,2.788,0,0,0-4.61,0,4,4,0,0,0-.209,1.775l-.132.1a4.36,4.36,0,0,0,.284,1.762l.177.1a3.08,3.08,0,0,0,.625,1.472Zm29.814,11.889a.677.677,0,0,1-.517.608l-2.161.711a1.134,1.134,0,0,0-.72.784l-.314,2.019h9.986l-.314-2.019a1.134,1.134,0,0,0-.72-.784L706.137,145a.678.678,0,0,1-.441-.584,2.526,2.526,0,0,0,.513-1.208l.146-.085a3.588,3.588,0,0,0,.232-1.446l-.108-.083a3.276,3.276,0,0,0-.172-1.456,2.288,2.288,0,0,0-3.782,0,3.281,3.281,0,0,0-.172,1.456l-.108.083a3.576,3.576,0,0,0,.233,1.446l.145.085a2.528,2.528,0,0,0,.513,1.208Zm-2.025-19.345a.441.441,0,0,1-.337.4l-1.407.463a.738.738,0,0,0-.469.51l-.2,1.315h6.5l-.2-1.315a.739.739,0,0,0-.469-.51l-1.456-.478a.442.442,0,0,1-.287-.381,1.647,1.647,0,0,0,.334-.786l.095-.055a2.33,2.33,0,0,0,.151-.941l-.07-.054a2.145,2.145,0,0,0-.112-.948,1.489,1.489,0,0,0-2.462,0,2.134,2.134,0,0,0-.112.948l-.07.054a2.325,2.325,0,0,0,.151.941l.095.055A1.646,1.646,0,0,0,701.111,125.075Z" transform="translate(-637.467 -92.306)" fill="#fff" fill-rule="evenodd"/>
  </g>
</svg>
