<svg xmlns="http://www.w3.org/2000/svg" xmlns:xlink="http://www.w3.org/1999/xlink" width="55.586" height="55.586" viewBox="0 0 55.586 55.586">
  <defs>
    <linearGradient id="linear-gradient" x1="0.214" y1="0.141" x2="0.737" y2="0.8" gradientUnits="objectBoundingBox">
      <stop offset="0" stop-color="#f44336"/>
      <stop offset="1" stop-color="#a00202"/>
    </linearGradient>
  </defs>
  <g id="Group_1380" data-name="Group 1380" transform="translate(-24.207 -17.843)">
    <rect id="Rectangle_990" data-name="Rectangle 990" width="55.586" height="55.586" rx="6" transform="translate(24.207 17.843)" fill="url(#linear-gradient)"/>
    <g id="Group_1382" data-name="Group 1382" transform="translate(-94.872 -23.161)">
      <path id="Path_1640" data-name="Path 1640" d="M150.823,84.313a7.491,7.491,0,0,1-2.372-.416,1.81,1.81,0,0,0-1.161,0,6.817,6.817,0,0,1-3.327.336c-3.695-.64-7.053-3.97-8.357-8.287-2.525-8.374,1.763-11.775,4.545-13.056a9.131,9.131,0,0,1,3.906-.842V63.6a7.614,7.614,0,0,0-3.255.7c-4.127,1.9-5.375,5.669-3.707,11.2,1.138,3.768,4,6.663,7.133,7.2a5.312,5.312,0,0,0,2.568-.278,3.354,3.354,0,0,1,2.148,0,5.274,5.274,0,0,0,2.568.279c3.131-.542,6-3.437,7.132-7.2,1-3.315.905-6.445-.26-8.588a5.879,5.879,0,0,0-3.617-2.874,8.085,8.085,0,0,0-2.27-.332,10.973,10.973,0,0,0-2.49.341,4.873,4.873,0,0,1-1.88.19c-.258-.05-.532-.11-.818-.175l.333-1.518h.005c.27.061.53.118.776.166a4.477,4.477,0,0,0,1.243-.18,12.275,12.275,0,0,1,2.831-.379,9.562,9.562,0,0,1,2.7.394,7.394,7.394,0,0,1,4.55,3.624c1.362,2.5,1.5,6.069.383,9.779-1.3,4.317-4.658,7.647-8.354,8.287A5.586,5.586,0,0,1,150.823,84.313Z" transform="translate(-1.302 -2.695)" fill="#fff"/>
      <path id="Path_1641" data-name="Path 1641" d="M138.95,72.833a6.921,6.921,0,0,1,2.171-5.373l1.055,1.141a5.428,5.428,0,0,0-1.672,4.219Z" transform="translate(-2.218 -3.902)" fill="#fff"/>
      <path id="Path_1642" data-name="Path 1642" d="M151.17,68.364a5.8,5.8,0,0,1-4.115-1.7l1.1-1.1a4.27,4.27,0,0,0,6.032,0l1.1,1.1A5.8,5.8,0,0,1,151.17,68.364Z" transform="translate(-4.025 -3.479)" fill="#fff"/>
      <path id="Path_1643" data-name="Path 1643" d="M150.993,61.577l-.176-.772a10.02,10.02,0,0,1,.949-6.759,10,10,0,0,1,5.6-3.9l.769-.191.176.772a10.013,10.013,0,0,1-.949,6.758,10.008,10.008,0,0,1-5.6,3.9Z" transform="translate(-4.816 0)" fill="#fff"/>
      <path id="Path_1644" data-name="Path 1644" d="M151.674,65.387H150.12a8.3,8.3,0,0,0-3.273-6.551l.974-1.211A9.833,9.833,0,0,1,151.674,65.387Z" transform="translate(-3.979 -1.709)" fill="#fff"/>
      <path id="Path_1645" data-name="Path 1645" d="M130.554,63.216H129V57h6.216v1.554h-4.662Z" transform="translate(0 -1.57)" fill="#fff"/>
      <path id="Path_1646" data-name="Path 1646" d="M135.216,91.216H129V85h1.554v4.662h4.662Z" transform="translate(0 -7.812)" fill="#fff"/>
      <path id="Path_1647" data-name="Path 1647" d="M173.216,64.216h-1.554V59.554H167V58h6.216Z" transform="translate(-8.472 -1.793)" fill="#fff"/>
      <path id="Path_1648" data-name="Path 1648" d="M173.216,91.216H167V89.662h4.662V85h1.554Z" transform="translate(-8.472 -7.812)" fill="#fff"/>
    </g>
  </g>
</svg>
