<svg width="110" height="110" viewBox="0 0 110 110" fill="none" xmlns="http://www.w3.org/2000/svg">
<rect width="110" height="110" rx="12" fill="#A70000"/>
<rect width="110" height="110" rx="12" fill="url(#paint0_linear_1265_2849)"/>
<path d="M63.125 59.3125H44.0625V63.125H63.125V59.3125ZM66.9375 74.5625H44.0625V78.375H66.9375V74.5625ZM55.5 66.9375H44.0625V70.75H55.5V66.9375ZM82.1875 40.25H74.5625V25H36.4375V40.25H28.8125C26.525 40.25 25 41.775 25 44.0625V63.125C25 65.4125 26.525 66.9375 28.8125 66.9375H36.4375V86H74.5625V66.9375H82.1875C84.475 66.9375 86 65.4125 86 63.125V44.0625C86 41.775 84.475 40.25 82.1875 40.25ZM70.75 82.1875H40.25V55.5H70.75V82.1875ZM70.75 40.25H40.25V28.8125H70.75V40.25ZM78.375 51.6875H74.5625V47.875H78.375V51.6875Z" fill="white"/>
<defs>
<linearGradient id="paint0_linear_1265_2849" x1="-1.05324e-06" y1="15" x2="107" y2="105.5" gradientUnits="userSpaceOnUse">
<stop stop-color="#E22A20"/>
<stop offset="0.776042" stop-color="#DD3128" stop-opacity="0"/>
</linearGradient>
</defs>
</svg>
