<svg xmlns="http://www.w3.org/2000/svg" xmlns:xlink="http://www.w3.org/1999/xlink" width="55.586" height="55.586" viewBox="0 0 55.586 55.586">
  <defs>
    <linearGradient id="linear-gradient" x1="0.214" y1="0.141" x2="0.737" y2="0.8" gradientUnits="objectBoundingBox">
      <stop offset="0" stop-color="#f44336"/>
      <stop offset="1" stop-color="#a00202"/>
    </linearGradient>
  </defs>
  <g id="Group_1380" data-name="Group 1380" transform="translate(-24.207 -17.843)">
    <rect id="Rectangle_990" data-name="Rectangle 990" width="55.586" height="55.586" rx="6" transform="translate(24.207 17.843)" fill="url(#linear-gradient)"/>
    <g id="Group_1050" data-name="Group 1050" transform="translate(33.425 25.828)">
      <g id="Group_1048" data-name="Group 1048" transform="translate(0 9.202)">
        <path id="Path_1012" data-name="Path 1012" d="M-1222.818,650.974h32.454a.783.783,0,0,1,.78.78.782.782,0,0,1-.78.78h-32.454Z" transform="translate(1224.857 -625.535)" fill="#fff" fill-rule="evenodd"/>
        <path id="Path_1013" data-name="Path 1013" d="M-958.5,469.308a4.972,4.972,0,0,0-4.389-2.633,4.972,4.972,0,0,0-4.389,2.633,8.339,8.339,0,0,0,4.389,1.24,8.338,8.338,0,0,0,4.389-1.24m-2.118-5.627a2.271,2.271,0,0,0-2.271-2.271,2.271,2.271,0,0,0-2.271,2.271,2.271,2.271,0,0,0,2.271,2.271A2.271,2.271,0,0,0-960.615,463.681Z" transform="translate(988.507 -450.208)" fill="#fff" fill-rule="evenodd"/>
        <path id="Path_1014" data-name="Path 1014" d="M-1224.353,314.858a9.349,9.349,0,0,1,9.349,9.349,9.349,9.349,0,0,1-9.349,9.349,9.349,9.349,0,0,1-9.349-9.349,9.349,9.349,0,0,1,9.349-9.349m-10.056,15.831-2.176,1.256a1.405,1.405,0,0,1-.686,1.4l-9.885,5.707a1.4,1.4,0,0,1-1.913-.513l-.717-1.242a1.4,1.4,0,0,1,.513-1.913l9.885-5.707a1.405,1.405,0,0,1,1.56.108l2.294-1.324a11.928,11.928,0,0,1-.781-4.258,11.963,11.963,0,0,1,11.963-11.963,11.963,11.963,0,0,1,11.963,11.963,11.963,11.963,0,0,1-11.963,11.963A11.953,11.953,0,0,1-1234.408,330.689Z" transform="translate(1249.972 -312.244)" fill="#fff" fill-rule="evenodd"/>
        <path id="Path_1015" data-name="Path 1015" d="M-963.03,361.886a7.211,7.211,0,0,1,6.927,5.2c.267.924,1.349.634,1.041-.393a8.321,8.321,0,0,0-7.967-5.92,8.284,8.284,0,0,0-3.938.989c-.9.483-.371,1.452.566.955a7.179,7.179,0,0,1,3.372-.835" transform="translate(988.649 -357.132)" fill="#fff" fill-rule="evenodd"/>
      </g>
      <path id="Path_1016" data-name="Path 1016" d="M-1105.062,189.715a3.735,3.735,0,0,0-3.738,3.738c0,2.8,3.738,6.942,3.738,6.942s3.738-4.139,3.738-6.942A3.735,3.735,0,0,0-1105.062,189.715Zm0,5.073a1.335,1.335,0,0,1-1.335-1.335,1.335,1.335,0,0,1,1.335-1.335,1.335,1.335,0,0,1,1.335,1.335A1.335,1.335,0,0,1-1105.062,194.788Z" transform="translate(1119.402 -189.715)" fill="#fff"/>
      <g id="Group_1049" data-name="Group 1049" transform="translate(0.304 12.399)">
        <path id="Path_1017" data-name="Path 1017" d="M-1237.278,359.754v-4.941h-6.176v2.47h-2.47v8.647h4.941v-2.47h1.235v2.47h4.941v-6.176Zm-6.176,4.941h-1.235V363.46h1.235Zm0-2.47h-1.235v-1.235h1.235Zm0-2.47h-1.235v-1.235h1.235Zm2.47,2.47h-1.235v-1.235h1.235Zm0-2.47h-1.235v-1.235h1.235Zm0-2.471h-1.235v-1.235h1.235Zm2.47,4.941h-1.235v-1.235h1.235Zm0-2.47h-1.235v-1.235h1.235Zm0-2.471h-1.235v-1.235h1.235Zm2.47,7.411h-1.235V363.46h1.235Zm0-2.47h-1.235v-1.235h1.235Z" transform="translate(1245.925 -354.813)" fill="#fff"/>
      </g>
    </g>
  </g>
</svg>
