<svg xmlns="http://www.w3.org/2000/svg" xmlns:xlink="http://www.w3.org/1999/xlink" width="55.586" height="55.586" viewBox="0 0 55.586 55.586">
  <defs>
    <linearGradient id="linear-gradient" x1="0.214" y1="0.141" x2="0.737" y2="0.8" gradientUnits="objectBoundingBox">
      <stop offset="0" stop-color="#f44336"/>
      <stop offset="1" stop-color="#a00202"/>
    </linearGradient>
  </defs>
  <g id="Group_1380" data-name="Group 1380" transform="translate(-24.207 -17.843)">
    <rect id="Rectangle_990" data-name="Rectangle 990" width="55.586" height="55.586" rx="6" transform="translate(24.207 17.843)" fill="url(#linear-gradient)"/>
    <g id="Group_1381" data-name="Group 1381" transform="translate(31.297 28.401)">
      <path id="Path_1007" data-name="Path 1007" d="M3606.113,1752.407l-.9,2.223h1.807Z" transform="translate(-3571.98 -1746.817)" fill="#fff"/>
      <path id="Path_1008" data-name="Path 1008" d="M3532.629,1709.465l-1.027,2.568a.651.651,0,0,0,.892.827l3.244-1.6a7.872,7.872,0,1,0-3.109-1.8Zm2.093-2.972.9-2.221v0l1.867-4.6a.652.652,0,0,1,1.207,0l2.771,6.821a.652.652,0,1,1-1.207.491l-.735-1.809h-2.865l-.735,1.809a.652.652,0,1,1-1.207-.491Z" transform="translate(-3504.121 -1695.867)" fill="#fff"/>
      <path id="Path_1009" data-name="Path 1009" d="M3238.386,1795.87a7.857,7.857,0,0,0,2.28-.336l3.244,1.6a.652.652,0,0,0,.893-.827l-1.027-2.568a7.867,7.867,0,1,0-5.389,2.136Zm-3.406-10.968h2.792v-.673a.652.652,0,1,1,1.3,0v.673h2.792a.652.652,0,1,1,0,1.3h-.905a7.6,7.6,0,0,1-1.632,2.986,8.91,8.91,0,0,0,2.374,1.36.651.651,0,1,1-.468,1.216,10.181,10.181,0,0,1-2.841-1.661,9.992,9.992,0,0,1-2.871,1.661.652.652,0,1,1-.468-1.216,8.732,8.732,0,0,0,2.379-1.349,8.715,8.715,0,0,1-1.023-1.321.652.652,0,1,1,1.11-.683,7.38,7.38,0,0,0,.849,1.1,6.5,6.5,0,0,0,1.228-2.094h-4.618a.652.652,0,1,1,0-1.3Z" transform="translate(-3230.519 -1772.815)" fill="#fff"/>
      <path id="Path_1010" data-name="Path 1010" d="M3425.8,1816.514a4.94,4.94,0,0,0-5.173,4.929v7.1a4.942,4.942,0,0,0,4.284,4.89v5.32h-2.818a.668.668,0,0,0-.671.57.652.652,0,0,0,.646.733h6.965a.668.668,0,0,0,.671-.57.651.651,0,0,0-.646-.733h-2.843v-5.32a4.942,4.942,0,0,0,4.284-4.89v-7.026A4.982,4.982,0,0,0,3425.8,1816.514Zm.558,14.674a.26.26,0,1,1-.306-.306A.261.261,0,0,1,3426.36,1831.188Zm.16-1.2a.26.26,0,1,1-.306-.306A.26.26,0,0,1,3426.52,1829.987Zm.517-.676a.26.26,0,1,1,.2-.2A.261.261,0,0,1,3427.036,1829.311Zm-.307-1.587a.26.26,0,1,1,.306.306A.261.261,0,0,1,3426.729,1827.723Zm.307-1.485a.26.26,0,1,1-.307.306A.26.26,0,0,1,3427.036,1826.238Zm.685,4.149a.261.261,0,1,1-.307-.306A.262.262,0,0,1,3427.721,1830.387Zm.8-1.281a.26.26,0,1,1-.306-.306A.261.261,0,0,1,3428.521,1829.106Zm0-1.281a.26.26,0,1,1-.306-.307A.261.261,0,0,1,3428.521,1827.825Zm0-1.281a.26.26,0,1,1-.307-.306A.261.261,0,0,1,3428.521,1826.544Zm.7-1.87h-7.3v-1.651h7.3Z" transform="translate(-3404.113 -1806.028)" fill="#fff"/>
    </g>
  </g>
</svg>
