<svg xmlns="http://www.w3.org/2000/svg" xmlns:xlink="http://www.w3.org/1999/xlink" width="55.586" height="55.586" viewBox="0 0 55.586 55.586">
  <defs>
    <linearGradient id="linear-gradient" x1="0.214" y1="0.141" x2="0.737" y2="0.8" gradientUnits="objectBoundingBox">
      <stop offset="0" stop-color="#f44336"/>
      <stop offset="1" stop-color="#a00202"/>
    </linearGradient>
  </defs>
  <g id="icon_landmark-detection" transform="translate(-24.207 -17.843)">
    <rect id="Rectangle_990" data-name="Rectangle 990" width="55.586" height="55.586" rx="6" transform="translate(24.207 17.843)" fill="url(#linear-gradient)"/>
    <g id="Group_1434" data-name="Group 1434" transform="translate(-179.248 -154.075)">
      <rect id="Rectangle_1010" data-name="Rectangle 1010" width="18.158" height="1.614" transform="translate(217.26 213.753) rotate(-56.308)" fill="#fff"/>
      <rect id="Rectangle_1011" data-name="Rectangle 1011" width="15.249" height="1.615" transform="matrix(0.554, -0.833, 0.833, 0.554, 229.366, 213.754)" fill="#fff"/>
      <rect id="Rectangle_1012" data-name="Rectangle 1012" width="6.536" height="1.614" transform="translate(240.268 197.4) rotate(-56.308)" fill="#fff"/>
      <path id="Path_1722" data-name="Path 1722" d="M239.448,224.124l-9.6-4.666H217.746l-10.128-4.924L220.706,194.9l1.343.9-12.063,18.094,8.131,3.953h12.106l8.663,4.212,13.623-20.435-8.131-3.953h-5.463v-1.614h5.835l10.128,4.924Z" transform="translate(0 -4.451)" fill="#fff"/>
      <rect id="Rectangle_1013" data-name="Rectangle 1013" width="1.615" height="3.144" transform="translate(250.898 192.797) rotate(-63.647)" fill="#fff"/>
      <rect id="Rectangle_1014" data-name="Rectangle 1014" width="1.614" height="4.963" transform="translate(244.396 189.636) rotate(-64.073)" fill="#fff"/>
      <rect id="Rectangle_1015" data-name="Rectangle 1015" width="1.614" height="6.673" transform="translate(229.902 218.622) rotate(-64.073)" fill="#fff"/>
      <path id="Path_1723" data-name="Path 1723" d="M216.642,217.227h-1.614v1.614h1.614v-1.614Z" transform="translate(-1.938 -10.29)" fill="#fff"/>
      <path id="Path_1724" data-name="Path 1724" d="M219.92,212.855h-1.614v1.614h1.614v-1.614Z" transform="translate(-2.795 -9.146)" fill="#fff"/>
      <path id="Path_1725" data-name="Path 1725" d="M223.2,208.484h-1.614V210.1H223.2v-1.614Z" transform="translate(-3.653 -8.003)" fill="#fff"/>
      <path id="Path_1726" data-name="Path 1726" d="M249.428,224.877h-1.614v1.614h1.614v-1.614Z" transform="translate(-10.513 -12.291)" fill="#fff"/>
      <path id="Path_1727" data-name="Path 1727" d="M252.707,220.505h-1.614v1.614h1.614v-1.614Z" transform="translate(-11.37 -11.147)" fill="#fff"/>
      <path id="Path_1728" data-name="Path 1728" d="M255.986,216.134h-1.614v1.614h1.614v-1.614Z" transform="translate(-12.228 -10.004)" fill="#fff"/>
      <path id="Path_1729" data-name="Path 1729" d="M237.928,190.9a3.228,3.228,0,1,1,3.229-3.228A3.231,3.231,0,0,1,237.928,190.9Zm0-4.842a1.614,1.614,0,1,0,1.614,1.614A1.616,1.616,0,0,0,237.928,186.054Z" transform="translate(-7.083 -1.715)" fill="#fff"/>
      <path id="Path_1730" data-name="Path 1730" d="M243.332,180.677a6.4,6.4,0,0,0-1.094-.551l.586-1.5a8.075,8.075,0,0,1,1.366.688Z" transform="translate(-9.054 -0.194)" fill="#fff"/>
      <path id="Path_1731" data-name="Path 1731" d="M236.213,198.958l-6.238-7.884a8.07,8.07,0,0,1,6.238-13.191c.266,0,.527.013.785.038l-.151,1.606c-.209-.019-.42-.03-.634-.03a6.456,6.456,0,0,0-4.982,10.562l4.982,6.3,4.935-6.24a6.481,6.481,0,0,0,1.521-4.163,6.39,6.39,0,0,0-1.357-3.96l1.274-.992a7.99,7.99,0,0,1,1.7,4.951,8.078,8.078,0,0,1-1.884,5.183Z" transform="translate(-5.368)" fill="#fff"/>
    </g>
  </g>
</svg>
