<svg xmlns="http://www.w3.org/2000/svg" xmlns:xlink="http://www.w3.org/1999/xlink" width="55.586" height="55.586" viewBox="0 0 55.586 55.586">
  <defs>
    <linearGradient id="linear-gradient" x1="0.214" y1="0.141" x2="0.737" y2="0.8" gradientUnits="objectBoundingBox">
      <stop offset="0" stop-color="#f44336"/>
      <stop offset="1" stop-color="#a00202"/>
    </linearGradient>
  </defs>
  <g id="icon_text-summary" transform="translate(-24.207 -17.843)">
    <rect id="Rectangle_990" data-name="Rectangle 990" width="55.586" height="55.586" rx="6" transform="translate(24.207 17.843)" fill="url(#linear-gradient)"/>
    <g id="noun_documents_2026223" transform="translate(-4.023 8.497)">
      <path id="Path_1732" data-name="Path 1732" d="M109.481,206.862h8.924a.881.881,0,1,0,0-1.762h-8.924a.881.881,0,0,0,0,1.762Z" transform="translate(-64.563 -172.44)" fill="#fff"/>
      <path id="Path_1733" data-name="Path 1733" d="M278.656,279.1H268.242a.872.872,0,0,0-.793,1.26l3.647,7.206V294.4a.889.889,0,0,0,.52.8.9.9,0,0,0,.37.079.887.887,0,0,0,.573-.211l2.907-2.467a.882.882,0,0,0,.3-.67v-4.37l3.665-7.215a.852.852,0,0,0-.026-.846A.872.872,0,0,0,278.656,279.1ZM274,291.522l-1.145.978v-4.246H274Zm.352-5.022h-1.815l-2.863-5.638h7.55Z" transform="translate(-209.334 -239.921)" fill="#fff"/>
      <path id="Path_1734" data-name="Path 1734" d="M66.608,34.307V26.3a.907.907,0,0,0-.255-.608l-8.977-9.418A.874.874,0,0,0,56.741,16H42.522A4.738,4.738,0,0,0,37.8,20.766V47.654a4.707,4.707,0,0,0,4.722,4.731H53.737A12.114,12.114,0,1,0,66.608,34.307ZM57.622,19.092l6.017,6.334h-3.9A2.122,2.122,0,0,1,57.622,23.3Zm-15.1,31.539a2.952,2.952,0,0,1-2.96-2.969v-26.9a2.976,2.976,0,0,1,2.96-3H55.86v5.55A3.884,3.884,0,0,0,59.737,27.2h5.11v6.881c-.238-.018-.476-.018-.714-.018a12.07,12.07,0,0,0-7.973,3H44.918a.881.881,0,0,0,0,1.762h9.594a12.183,12.183,0,0,0-1.577,2.731H44.918a.881.881,0,1,0,0,1.762h7.444a12.116,12.116,0,0,0,.5,7.312Zm21.611,5.885A10.352,10.352,0,1,1,74.484,46.165,10.362,10.362,0,0,1,64.133,56.517Z" transform="translate(0 0)" fill="#fff"/>
    </g>
  </g>
</svg>
