<svg xmlns="http://www.w3.org/2000/svg" xmlns:xlink="http://www.w3.org/1999/xlink" width="55.586" height="55.586" viewBox="0 0 55.586 55.586">
  <defs>
    <linearGradient id="linear-gradient" x1="0.214" y1="0.141" x2="0.737" y2="0.8" gradientUnits="objectBoundingBox">
      <stop offset="0" stop-color="#f44336"/>
      <stop offset="1" stop-color="#a00202"/>
    </linearGradient>
  </defs>
  <g id="demographics-classification" transform="translate(-24.207 -17.843)">
    <rect id="Rectangle_990" data-name="Rectangle 990" width="55.586" height="55.586" rx="6" transform="translate(24.207 17.843)" fill="url(#linear-gradient)"/>
    <g id="Group_1433" data-name="Group 1433" transform="translate(98.756 -391.184)">
      <path id="Path_1710" data-name="Path 1710" d="M-29.108,426h-2.378a.793.793,0,0,0-.793.793.793.793,0,0,0,.793.793h2.378v23.784H-63.99V427.586h2.378a.792.792,0,0,0,.793-.793.792.792,0,0,0-.793-.793H-63.99a1.587,1.587,0,0,0-1.586,1.586v23.784a1.587,1.587,0,0,0,1.586,1.586h9.513v3.171h-4.757a.793.793,0,0,0-.793.793.793.793,0,0,0,.793.793h25.369a.792.792,0,0,0,.793-.793.792.792,0,0,0-.793-.793h-4.757v-3.171h9.513a1.587,1.587,0,0,0,1.586-1.586V427.586A1.587,1.587,0,0,0-29.108,426Zm-11.1,30.126H-52.891v-3.171h12.685Z" transform="translate(0 -1.658)" fill="#fff"/>
      <path id="Path_1711" data-name="Path 1711" d="M-57.783,448.919a.792.792,0,0,0,.793-.793v-22.2h23.784v22.2a.793.793,0,0,0,.793.793.792.792,0,0,0,.793-.793V418.793a.792.792,0,0,0-.793-.793H-57.783a.793.793,0,0,0-.793.793v29.333A.793.793,0,0,0-57.783,448.919Zm24.577-29.333v4.757H-56.99v-4.757Z" transform="translate(-1.45)" fill="#fff"/>
      <path id="Path_1712" data-name="Path 1712" d="M-32.995,445h-8.461a.793.793,0,0,0-.793.793.793.793,0,0,0,.793.793h8.461a.792.792,0,0,0,.793-.793A.792.792,0,0,0-32.995,445Z" transform="translate(-4.834 -5.595)" fill="#fff"/>
      <path id="Path_1713" data-name="Path 1713" d="M-53.576,445.793a.793.793,0,0,0,.793.793h6.342a.792.792,0,0,0,.793-.793.792.792,0,0,0-.793-.793h-6.342A.793.793,0,0,0-53.576,445.793Z" transform="translate(-2.487 -5.595)" fill="#fff"/>
      <path id="Path_1714" data-name="Path 1714" d="M-31.166,449.793a.792.792,0,0,0-.793-.793h-4.5a.793.793,0,0,0-.793.793.793.793,0,0,0,.793.793h4.5A.792.792,0,0,0-31.166,449.793Z" transform="translate(-5.87 -6.423)" fill="#fff"/>
      <path id="Path_1715" data-name="Path 1715" d="M-41.684,449.793a.792.792,0,0,0-.793-.793H-52.783a.793.793,0,0,0-.793.793.793.793,0,0,0,.793.793h10.306A.792.792,0,0,0-41.684,449.793Z" transform="translate(-2.487 -6.423)" fill="#fff"/>
      <path id="Path_1716" data-name="Path 1716" d="M-42.456,454.586h5.29a.792.792,0,0,0,.793-.793.792.792,0,0,0-.793-.793h-5.29a.793.793,0,0,0-.793.793A.793.793,0,0,0-42.456,454.586Z" transform="translate(-4.626 -7.252)" fill="#fff"/>
      <path id="Path_1717" data-name="Path 1717" d="M-52.783,453a.793.793,0,0,0-.793.793.793.793,0,0,0,.793.793h5.55a.792.792,0,0,0,.793-.793.792.792,0,0,0-.793-.793Z" transform="translate(-2.487 -7.252)" fill="#fff"/>
      <path id="Path_1718" data-name="Path 1718" d="M-54.783,423.586H-53.2a.792.792,0,0,0,.793-.793A.792.792,0,0,0-53.2,422h-1.586a.793.793,0,0,0-.793.793A.793.793,0,0,0-54.783,423.586Z" transform="translate(-2.072 -0.829)" fill="#fff"/>
      <path id="Path_1719" data-name="Path 1719" d="M-49.771,423.586h.783a.792.792,0,0,0,.793-.793.792.792,0,0,0-.793-.793h-.783a.793.793,0,0,0-.793.793A.793.793,0,0,0-49.771,423.586Z" transform="translate(-3.111 -0.829)" fill="#fff"/>
      <path id="Path_1720" data-name="Path 1720" d="M-45.771,423.586h.783a.792.792,0,0,0,.793-.793.792.792,0,0,0-.793-.793h-.783a.793.793,0,0,0-.793.793A.793.793,0,0,0-45.771,423.586Z" transform="translate(-3.939 -0.829)" fill="#fff"/>
      <path id="Path_1721" data-name="Path 1721" d="M-48.576,438.478v1.828a.793.793,0,0,0,.793.793.792.792,0,0,0,.793-.793v-1.828a.79.79,0,0,1,.663-.782l3.3-.55,3.3.55a.789.789,0,0,1,.662.782v1.828a.793.793,0,0,0,.793.793.792.792,0,0,0,.793-.793v-1.828a2.37,2.37,0,0,0-1.987-2.346l-1.285-.214a4.5,4.5,0,0,0,.893-2.747A2.942,2.942,0,0,0-43.026,430a2.942,2.942,0,0,0-3.171,3.171,4.5,4.5,0,0,0,.894,2.747l-1.284.214A2.371,2.371,0,0,0-48.576,438.478Zm5.55-6.893c1.421,0,1.586.905,1.586,1.586,0,1.267-.74,2.378-1.586,2.378s-1.586-1.111-1.586-2.378C-44.612,432.491-44.447,431.586-43.026,431.586Z" transform="translate(-3.523 -2.487)" fill="#fff"/>
    </g>
  </g>
</svg>
